<svg xmlns="http://www.w3.org/2000/svg" xmlns:xlink="http://www.w3.org/1999/xlink" width="1000" zoomAndPan="magnify" viewBox="0 0 750 299.999988" height="400" preserveAspectRatio="xMidYMid meet" version="1.0"><defs><filter x="0%" y="0%" width="100%" height="100%" id="9215fe8c7b"><feColorMatrix values="0 0 0 0 1 0 0 0 0 1 0 0 0 0 1 0 0 0 1 0" color-interpolation-filters="sRGB"/></filter><g/><mask id="0caedb744a"><g filter="url(#9215fe8c7b)"><rect x="-75" width="900" fill="#000000" y="-29.999999" height="359.999986" fill-opacity="0.33"/></g></mask><clipPath id="984cb3f125"><path d="M 80 0.863281 L 190 0.863281 L 190 13 L 80 13 Z M 80 0.863281 " clip-rule="nonzero"/></clipPath><clipPath id="13d0b661e2"><path d="M 0.140625 0.863281 L 270 0.863281 L 270 239 L 0.140625 239 Z M 0.140625 0.863281 " clip-rule="nonzero"/></clipPath><clipPath id="95e44e112a"><rect x="0" width="270" y="0" height="240"/></clipPath></defs><g mask="url(#0caedb744a)"><g transform="matrix(1, 0, 0, 1, 240, 31)"><g clip-path="url(#95e44e112a)"><g clip-path="url(#984cb3f125)"><path fill="#bc9946" d="M 91.527344 12.980469 L 178.472656 12.980469 L 190 0.863281 L 80 0.863281 Z M 91.527344 12.980469 " fill-opacity="1" fill-rule="nonzero"/></g><g clip-path="url(#13d0b661e2)"><path fill="#bc9946" d="M 135 238.976562 L 0.1875 67.257812 L 60.851562 0.863281 L 135 78.800781 L 209.148438 0.863281 L 269.8125 67.257812 Z M 16.058594 67.851562 L 135 219.355469 L 253.941406 67.851562 L 208.96875 18.632812 L 143.359375 87.589844 L 178.476562 124.5 L 135.007812 179.90625 L 91.519531 124.5 L 126.636719 87.589844 L 61.03125 18.632812 Z M 107.523438 125.261719 L 135.007812 160.277344 L 162.476562 125.261719 L 135 96.378906 Z M 107.523438 125.261719 " fill-opacity="1" fill-rule="nonzero"/></g></g></g></g><g fill="#bc9946" fill-opacity="1"><g transform="translate(11.580823, 133.076679)"><g><path d="M 4.109375 0 L 3.8125 -4.890625 L 10.078125 -6.546875 C 10.078125 -6.941406 10.09375 -7.691406 10.125 -8.796875 C 10.15625 -9.910156 10.1875 -11.21875 10.21875 -12.71875 C 10.25 -14.21875 10.28125 -15.75 10.3125 -17.3125 C 10.34375 -18.875 10.359375 -20.273438 10.359375 -21.515625 L 10.359375 -35.796875 C 10.359375 -38.535156 10.328125 -40.992188 10.265625 -43.171875 C 10.203125 -45.359375 10.117188 -47.132812 10.015625 -48.5 C 9.921875 -49.875 9.8125 -50.691406 9.6875 -50.953125 L 3.421875 -52.515625 L 3.71875 -57.40625 L 29.046875 -57.40625 C 36.546875 -57.40625 42.085938 -56.210938 45.671875 -53.828125 C 49.253906 -51.453125 51.046875 -47.691406 51.046875 -42.546875 C 51.046875 -39.347656 50.066406 -36.492188 48.109375 -33.984375 C 46.160156 -31.472656 43.472656 -29.5 40.046875 -28.0625 C 36.617188 -26.632812 32.691406 -25.921875 28.265625 -25.921875 L 21.90625 -25.921875 L 21.90625 -31.59375 L 26.3125 -31.59375 C 29.570312 -31.59375 32.191406 -32.582031 34.171875 -34.5625 C 36.160156 -36.550781 37.15625 -39.210938 37.15625 -42.546875 C 37.15625 -45.609375 36.320312 -47.9375 34.65625 -49.53125 C 33 -51.125 30.570312 -51.921875 27.375 -51.921875 L 23.671875 -51.921875 C 23.597656 -51.734375 23.546875 -51.179688 23.515625 -50.265625 C 23.484375 -49.347656 23.46875 -48.1875 23.46875 -46.78125 C 23.46875 -45.382812 23.46875 -43.820312 23.46875 -42.09375 C 23.46875 -40.375 23.46875 -38.535156 23.46875 -36.578125 L 23.46875 -21.515625 C 23.46875 -19.816406 23.484375 -17.957031 23.515625 -15.9375 C 23.546875 -13.914062 23.59375 -12.039062 23.65625 -10.3125 C 23.726562 -8.582031 23.796875 -7.328125 23.859375 -6.546875 L 29.34375 -4.890625 L 29.046875 0 Z M 55.15625 1.171875 C 51.5 1.171875 48.253906 0.585938 45.421875 -0.578125 C 42.585938 -1.753906 40.046875 -3.582031 37.796875 -6.0625 C 35.546875 -8.539062 33.539062 -11.671875 31.78125 -15.453125 L 26.203125 -27.484375 L 37.0625 -30.015625 L 48.703125 -13.78125 C 50.066406 -11.894531 51.398438 -10.300781 52.703125 -9 C 54.015625 -7.695312 55.382812 -6.632812 56.8125 -5.8125 C 58.25 -5 59.785156 -4.363281 61.421875 -3.90625 L 61.3125 0.59375 C 60.269531 0.78125 59.242188 0.921875 58.234375 1.015625 C 57.222656 1.117188 56.195312 1.171875 55.15625 1.171875 Z M 55.15625 1.171875 "/></g></g></g><g fill="#bc9946" fill-opacity="1"><g transform="translate(82.718076, 133.076679)"><g><path d="M 3.515625 -57.40625 L 29.734375 -57.40625 L 30.015625 -52.515625 L 23.765625 -50.859375 C 23.703125 -50.203125 23.632812 -49.171875 23.5625 -47.765625 C 23.5 -46.367188 23.4375 -44.675781 23.375 -42.6875 C 23.3125 -40.695312 23.28125 -38.398438 23.28125 -35.796875 L 23.28125 -25.71875 C 23.28125 -21.9375 23.816406 -18.738281 24.890625 -16.125 C 25.960938 -13.519531 27.539062 -11.566406 29.625 -10.265625 C 31.71875 -8.960938 34.265625 -8.3125 37.265625 -8.3125 C 40.265625 -8.3125 42.753906 -8.945312 44.734375 -10.21875 C 46.722656 -11.488281 48.207031 -13.425781 49.1875 -16.03125 C 50.164062 -18.644531 50.65625 -21.90625 50.65625 -25.8125 L 50.65625 -34.03125 C 50.65625 -37.03125 50.625 -39.769531 50.5625 -42.25 C 50.5 -44.726562 50.414062 -46.734375 50.3125 -48.265625 C 50.21875 -49.796875 50.101562 -50.660156 49.96875 -50.859375 L 43.125 -52.515625 L 43.421875 -57.40625 L 65.234375 -57.40625 L 65.515625 -52.515625 L 59.265625 -50.859375 C 59.203125 -50.660156 59.117188 -49.796875 59.015625 -48.265625 C 58.921875 -46.734375 58.835938 -44.726562 58.765625 -42.25 C 58.703125 -39.769531 58.671875 -37.03125 58.671875 -34.03125 L 58.671875 -24.15625 C 58.671875 -19 57.722656 -14.546875 55.828125 -10.796875 C 53.941406 -7.054688 51.253906 -4.175781 47.765625 -2.15625 C 44.285156 -0.132812 40.164062 0.875 35.40625 0.875 C 27.25 0.875 20.96875 -1.289062 16.5625 -5.625 C 12.164062 -9.957031 9.96875 -16.101562 9.96875 -24.0625 L 9.96875 -35.796875 C 9.96875 -38.535156 9.9375 -41.007812 9.875 -43.21875 C 9.8125 -45.4375 9.742188 -47.210938 9.671875 -48.546875 C 9.609375 -49.890625 9.546875 -50.660156 9.484375 -50.859375 L 3.234375 -52.515625 Z M 3.515625 -57.40625 "/></g></g></g><g fill="#bc9946" fill-opacity="1"><g transform="translate(161.385549, 133.076679)"><g><path d="M 9.578125 -6.453125 C 9.773438 -6.910156 9.9375 -8.554688 10.0625 -11.390625 C 10.195312 -14.222656 10.265625 -17.597656 10.265625 -21.515625 L 10.265625 -35.796875 C 10.265625 -39.898438 10.195312 -43.367188 10.0625 -46.203125 C 9.9375 -49.046875 9.773438 -50.628906 9.578125 -50.953125 L 3.328125 -52.609375 L 3.625 -57.40625 L 31.390625 -57.40625 C 38.304688 -57.40625 43.441406 -56.265625 46.796875 -53.984375 C 50.148438 -51.703125 51.828125 -48.242188 51.828125 -43.609375 C 51.828125 -40.023438 50.28125 -37.023438 47.1875 -34.609375 C 44.09375 -32.203125 40 -30.835938 34.90625 -30.515625 L 35.5 -31.296875 C 41.695312 -31.035156 46.457031 -29.632812 49.78125 -27.09375 C 53.101562 -24.550781 54.765625 -21.128906 54.765625 -16.828125 C 54.765625 -11.546875 52.53125 -7.421875 48.0625 -4.453125 C 43.59375 -1.484375 37.351562 0 29.34375 0 L 3.625 0 L 3.328125 -4.890625 Z M 23.375 -17.3125 C 23.375 -14.695312 23.40625 -12.425781 23.46875 -10.5 C 23.53125 -8.582031 23.597656 -7.265625 23.671875 -6.546875 C 24.316406 -6.285156 25.226562 -6.070312 26.40625 -5.90625 C 27.582031 -5.75 28.65625 -5.671875 29.625 -5.671875 C 33.144531 -5.671875 35.867188 -6.535156 37.796875 -8.265625 C 39.722656 -9.992188 40.6875 -12.390625 40.6875 -15.453125 C 40.6875 -19.171875 39.640625 -21.890625 37.546875 -23.609375 C 35.460938 -25.335938 32.171875 -26.203125 27.671875 -26.203125 C 26.566406 -26.203125 25.585938 -26.203125 24.734375 -26.203125 C 23.890625 -26.203125 23.007812 -26.140625 22.09375 -26.015625 L 22.09375 -32.46875 C 23.070312 -32.40625 23.9375 -32.351562 24.6875 -32.3125 C 25.4375 -32.28125 26.269531 -32.265625 27.1875 -32.265625 C 30.707031 -32.265625 33.347656 -33.128906 35.109375 -34.859375 C 36.867188 -36.585938 37.75 -39.082031 37.75 -42.34375 C 37.75 -45.28125 36.882812 -47.609375 35.15625 -49.328125 C 33.425781 -51.054688 30.769531 -51.921875 27.1875 -51.921875 L 23.5625 -51.921875 C 23.5 -51.335938 23.453125 -49.953125 23.421875 -47.765625 C 23.390625 -45.585938 23.375 -43.03125 23.375 -40.09375 Z M 23.375 -17.3125 "/></g></g></g><g fill="#bc9946" fill-opacity="1"><g transform="translate(230.371306, 133.076679)"><g><path d="M 51.640625 -50.953125 L 30.90625 -17.890625 L 35.109375 -27.671875 L 35.109375 -17.890625 C 35.109375 -16.722656 35.125 -15.503906 35.15625 -14.234375 C 35.1875 -12.960938 35.21875 -11.785156 35.25 -10.703125 C 35.28125 -9.628906 35.34375 -8.703125 35.4375 -7.921875 C 35.539062 -7.140625 35.625 -6.648438 35.6875 -6.453125 L 42.546875 -4.984375 L 42.25 0 L 14.96875 0 L 14.671875 -4.984375 L 21.515625 -6.453125 C 21.578125 -6.648438 21.640625 -7.140625 21.703125 -7.921875 C 21.773438 -8.703125 21.84375 -9.628906 21.90625 -10.703125 C 21.96875 -11.785156 22 -12.960938 22 -14.234375 C 22 -15.503906 22 -16.722656 22 -17.890625 L 22 -27.671875 L 25.234375 -17.890625 L 5.671875 -50.953125 L 0.6875 -52.515625 L 0.984375 -57.40625 L 26.796875 -57.40625 L 27.09375 -52.515625 L 20.921875 -50.953125 L 33.34375 -29.53125 L 31 -29.53125 L 43.421875 -50.953125 L 36.578125 -52.515625 L 36.875 -57.40625 L 56.328125 -57.40625 L 56.625 -52.515625 Z M 51.640625 -50.953125 "/></g></g></g><g fill="#bc9946" fill-opacity="1"><g transform="translate(297.694556, 133.076679)"><g/></g></g><g fill="#bc9946" fill-opacity="1"><g transform="translate(326.975523, 133.076679)"><g><path d="M 9.578125 -6.453125 C 9.773438 -6.910156 9.9375 -8.554688 10.0625 -11.390625 C 10.195312 -14.222656 10.265625 -17.597656 10.265625 -21.515625 L 10.265625 -35.796875 C 10.265625 -39.898438 10.195312 -43.367188 10.0625 -46.203125 C 9.9375 -49.046875 9.773438 -50.628906 9.578125 -50.953125 L 3.328125 -52.609375 L 3.625 -57.40625 L 31.390625 -57.40625 C 38.304688 -57.40625 43.441406 -56.265625 46.796875 -53.984375 C 50.148438 -51.703125 51.828125 -48.242188 51.828125 -43.609375 C 51.828125 -40.023438 50.28125 -37.023438 47.1875 -34.609375 C 44.09375 -32.203125 40 -30.835938 34.90625 -30.515625 L 35.5 -31.296875 C 41.695312 -31.035156 46.457031 -29.632812 49.78125 -27.09375 C 53.101562 -24.550781 54.765625 -21.128906 54.765625 -16.828125 C 54.765625 -11.546875 52.53125 -7.421875 48.0625 -4.453125 C 43.59375 -1.484375 37.351562 0 29.34375 0 L 3.625 0 L 3.328125 -4.890625 Z M 23.375 -17.3125 C 23.375 -14.695312 23.40625 -12.425781 23.46875 -10.5 C 23.53125 -8.582031 23.597656 -7.265625 23.671875 -6.546875 C 24.316406 -6.285156 25.226562 -6.070312 26.40625 -5.90625 C 27.582031 -5.75 28.65625 -5.671875 29.625 -5.671875 C 33.144531 -5.671875 35.867188 -6.535156 37.796875 -8.265625 C 39.722656 -9.992188 40.6875 -12.390625 40.6875 -15.453125 C 40.6875 -19.171875 39.640625 -21.890625 37.546875 -23.609375 C 35.460938 -25.335938 32.171875 -26.203125 27.671875 -26.203125 C 26.566406 -26.203125 25.585938 -26.203125 24.734375 -26.203125 C 23.890625 -26.203125 23.007812 -26.140625 22.09375 -26.015625 L 22.09375 -32.46875 C 23.070312 -32.40625 23.9375 -32.351562 24.6875 -32.3125 C 25.4375 -32.28125 26.269531 -32.265625 27.1875 -32.265625 C 30.707031 -32.265625 33.347656 -33.128906 35.109375 -34.859375 C 36.867188 -36.585938 37.75 -39.082031 37.75 -42.34375 C 37.75 -45.28125 36.882812 -47.609375 35.15625 -49.328125 C 33.425781 -51.054688 30.769531 -51.921875 27.1875 -51.921875 L 23.5625 -51.921875 C 23.5 -51.335938 23.453125 -49.953125 23.421875 -47.765625 C 23.390625 -45.585938 23.375 -43.03125 23.375 -40.09375 Z M 23.375 -17.3125 "/></g></g></g><g fill="#bc9946" fill-opacity="1"><g transform="translate(395.96127, 133.076679)"><g><path d="M 50.859375 0.59375 C 49.023438 0.457031 46.820312 0.320312 44.25 0.1875 C 41.675781 0.0625 39.347656 0 37.265625 0 L 3.625 0 L 3.328125 -4.890625 L 9.578125 -6.453125 C 9.710938 -6.773438 9.828125 -7.617188 9.921875 -8.984375 C 10.023438 -10.359375 10.109375 -12.140625 10.171875 -14.328125 C 10.234375 -16.515625 10.265625 -18.910156 10.265625 -21.515625 L 10.265625 -35.796875 C 10.265625 -38.535156 10.234375 -40.992188 10.171875 -43.171875 C 10.109375 -45.359375 10.023438 -47.132812 9.921875 -48.5 C 9.828125 -49.875 9.710938 -50.691406 9.578125 -50.953125 L 3.328125 -52.515625 L 3.625 -57.40625 L 33.734375 -57.40625 C 35.035156 -57.40625 36.613281 -57.421875 38.46875 -57.453125 C 40.332031 -57.484375 42.160156 -57.546875 43.953125 -57.640625 C 45.742188 -57.742188 47.257812 -57.828125 48.5 -57.890625 L 51.140625 -43.421875 L 45.46875 -42.640625 L 41.859375 -51.25 C 41.003906 -51.4375 40.234375 -51.5625 39.546875 -51.625 C 38.867188 -51.695312 38.140625 -51.734375 37.359375 -51.734375 L 29.921875 -51.734375 C 28.679688 -51.734375 27.488281 -51.71875 26.34375 -51.6875 C 25.207031 -51.65625 24.28125 -51.570312 23.5625 -51.4375 C 23.5625 -50.914062 23.546875 -50.132812 23.515625 -49.09375 C 23.484375 -48.050781 23.453125 -46.710938 23.421875 -45.078125 C 23.390625 -43.453125 23.375 -41.53125 23.375 -39.3125 L 23.375 -18.78125 C 23.375 -16.6875 23.390625 -14.820312 23.421875 -13.1875 C 23.453125 -11.5625 23.484375 -10.210938 23.515625 -9.140625 C 23.546875 -8.066406 23.5625 -7.238281 23.5625 -6.65625 C 24.738281 -6.457031 25.976562 -6.320312 27.28125 -6.25 C 28.582031 -6.1875 30.210938 -6.15625 32.171875 -6.15625 L 37.359375 -6.15625 C 39.054688 -6.15625 40.3125 -6.171875 41.125 -6.203125 C 41.9375 -6.242188 42.550781 -6.296875 42.96875 -6.359375 C 43.394531 -6.421875 43.835938 -6.484375 44.296875 -6.546875 L 49.671875 -16.328125 L 55.25 -15.25 Z M 38.4375 -19.5625 L 37.453125 -26.109375 C 36.992188 -26.171875 36.273438 -26.21875 35.296875 -26.25 C 34.328125 -26.289062 33.1875 -26.3125 31.875 -26.3125 L 26.703125 -26.3125 C 25.585938 -26.3125 24.523438 -26.273438 23.515625 -26.203125 C 22.503906 -26.140625 21.738281 -26.078125 21.21875 -26.015625 L 21.21875 -32.953125 C 21.738281 -32.890625 22.503906 -32.820312 23.515625 -32.75 C 24.523438 -32.6875 25.585938 -32.65625 26.703125 -32.65625 L 31.875 -32.65625 C 33.1875 -32.65625 34.328125 -32.671875 35.296875 -32.703125 C 36.273438 -32.742188 36.992188 -32.765625 37.453125 -32.765625 L 38.4375 -39.3125 L 43.8125 -39.3125 L 43.8125 -19.5625 Z M 38.4375 -19.5625 "/></g></g></g><g fill="#bc9946" fill-opacity="1"><g transform="translate(462.893339, 133.076679)"><g><path d="M -0.09375 0 L -0.390625 -4.890625 L 4.6875 -6.453125 L 24.546875 -54.5625 L 32.765625 -59.171875 L 55.25 -6.453125 L 60.34375 -4.890625 L 60.046875 0 L 33.84375 0 L 33.546875 -4.890625 L 39.796875 -6.453125 L 34.515625 -19.0625 L 33.453125 -22.390625 L 23.671875 -45.46875 L 26.5 -44.6875 L 18.390625 -22.6875 L 17.5 -19.75 L 12.8125 -6.453125 L 19.0625 -4.890625 L 18.78125 0 Z M 15.15625 -16.625 L 15.15625 -23.28125 C 16.457031 -23.207031 17.921875 -23.125 19.546875 -23.03125 C 21.179688 -22.9375 23.367188 -22.890625 26.109375 -22.890625 C 28.710938 -22.890625 30.878906 -22.9375 32.609375 -23.03125 C 34.335938 -23.125 35.820312 -23.207031 37.0625 -23.28125 L 37.0625 -16.71875 C 35.820312 -16.71875 34.320312 -16.75 32.5625 -16.8125 C 30.800781 -16.882812 28.648438 -16.921875 26.109375 -16.921875 C 23.429688 -16.921875 21.242188 -16.882812 19.546875 -16.8125 C 17.859375 -16.75 16.394531 -16.6875 15.15625 -16.625 Z M 15.15625 -16.625 "/></g></g></g><g fill="#bc9946" fill-opacity="1"><g transform="translate(532.465876, 133.076679)"><g><path d="M 3.515625 -57.40625 L 29.734375 -57.40625 L 30.015625 -52.515625 L 23.765625 -50.859375 C 23.703125 -50.203125 23.632812 -49.171875 23.5625 -47.765625 C 23.5 -46.367188 23.4375 -44.675781 23.375 -42.6875 C 23.3125 -40.695312 23.28125 -38.398438 23.28125 -35.796875 L 23.28125 -25.71875 C 23.28125 -21.9375 23.816406 -18.738281 24.890625 -16.125 C 25.960938 -13.519531 27.539062 -11.566406 29.625 -10.265625 C 31.71875 -8.960938 34.265625 -8.3125 37.265625 -8.3125 C 40.265625 -8.3125 42.753906 -8.945312 44.734375 -10.21875 C 46.722656 -11.488281 48.207031 -13.425781 49.1875 -16.03125 C 50.164062 -18.644531 50.65625 -21.90625 50.65625 -25.8125 L 50.65625 -34.03125 C 50.65625 -37.03125 50.625 -39.769531 50.5625 -42.25 C 50.5 -44.726562 50.414062 -46.734375 50.3125 -48.265625 C 50.21875 -49.796875 50.101562 -50.660156 49.96875 -50.859375 L 43.125 -52.515625 L 43.421875 -57.40625 L 65.234375 -57.40625 L 65.515625 -52.515625 L 59.265625 -50.859375 C 59.203125 -50.660156 59.117188 -49.796875 59.015625 -48.265625 C 58.921875 -46.734375 58.835938 -44.726562 58.765625 -42.25 C 58.703125 -39.769531 58.671875 -37.03125 58.671875 -34.03125 L 58.671875 -24.15625 C 58.671875 -19 57.722656 -14.546875 55.828125 -10.796875 C 53.941406 -7.054688 51.253906 -4.175781 47.765625 -2.15625 C 44.285156 -0.132812 40.164062 0.875 35.40625 0.875 C 27.25 0.875 20.96875 -1.289062 16.5625 -5.625 C 12.164062 -9.957031 9.96875 -16.101562 9.96875 -24.0625 L 9.96875 -35.796875 C 9.96875 -38.535156 9.9375 -41.007812 9.875 -43.21875 C 9.8125 -45.4375 9.742188 -47.210938 9.671875 -48.546875 C 9.609375 -49.890625 9.546875 -50.660156 9.484375 -50.859375 L 3.234375 -52.515625 Z M 3.515625 -57.40625 "/></g></g></g><g fill="#bc9946" fill-opacity="1"><g transform="translate(611.133354, 133.076679)"><g><path d="M 56.03125 -57.890625 L 58.28125 -40.578125 L 52.21875 -40.09375 L 48.3125 -51.34375 C 47.65625 -51.46875 46.96875 -51.546875 46.25 -51.578125 C 45.539062 -51.617188 44.757812 -51.640625 43.90625 -51.640625 L 40.578125 -51.640625 C 39.992188 -51.640625 39.328125 -51.640625 38.578125 -51.640625 C 37.828125 -51.640625 37.257812 -51.570312 36.875 -51.4375 C 36.875 -51.050781 36.851562 -49.847656 36.8125 -47.828125 C 36.78125 -45.804688 36.75 -43.390625 36.71875 -40.578125 C 36.6875 -37.773438 36.671875 -34.941406 36.671875 -32.078125 L 36.671875 -22.984375 C 36.671875 -19.328125 36.703125 -16.03125 36.765625 -13.09375 C 36.835938 -10.164062 36.90625 -7.953125 36.96875 -6.453125 L 45.46875 -5.078125 L 45.1875 0 L 14.765625 0 L 14.46875 -5.078125 L 22.984375 -6.453125 C 23.046875 -7.953125 23.109375 -10.164062 23.171875 -13.09375 C 23.242188 -16.03125 23.28125 -19.328125 23.28125 -22.984375 L 23.28125 -32.078125 C 23.28125 -34.941406 23.257812 -37.773438 23.21875 -40.578125 C 23.1875 -43.390625 23.171875 -45.804688 23.171875 -47.828125 C 23.171875 -49.847656 23.140625 -51.050781 23.078125 -51.4375 C 22.691406 -51.570312 22.125 -51.640625 21.375 -51.640625 C 20.625 -51.640625 19.953125 -51.640625 19.359375 -51.640625 L 15.9375 -51.640625 C 15.15625 -51.640625 14.359375 -51.617188 13.546875 -51.578125 C 12.734375 -51.546875 12 -51.46875 11.34375 -51.34375 L 7.625 -39.90625 L 1.5625 -40.484375 L 3.625 -57.890625 C 4.269531 -57.890625 5.195312 -57.859375 6.40625 -57.796875 C 7.613281 -57.734375 8.882812 -57.664062 10.21875 -57.59375 C 11.550781 -57.53125 12.851562 -57.484375 14.125 -57.453125 C 15.394531 -57.421875 16.488281 -57.40625 17.40625 -57.40625 L 42.25 -57.40625 C 43.15625 -57.40625 44.226562 -57.421875 45.46875 -57.453125 C 46.707031 -57.484375 48.007812 -57.53125 49.375 -57.59375 C 50.75 -57.664062 52.019531 -57.734375 53.1875 -57.796875 C 54.363281 -57.859375 55.3125 -57.890625 56.03125 -57.890625 Z M 56.03125 -57.890625 "/></g></g></g><g fill="#bc9946" fill-opacity="1"><g transform="translate(681.097032, 133.076679)"><g><path d="M 51.640625 -50.953125 L 30.90625 -17.890625 L 35.109375 -27.671875 L 35.109375 -17.890625 C 35.109375 -16.722656 35.125 -15.503906 35.15625 -14.234375 C 35.1875 -12.960938 35.21875 -11.785156 35.25 -10.703125 C 35.28125 -9.628906 35.34375 -8.703125 35.4375 -7.921875 C 35.539062 -7.140625 35.625 -6.648438 35.6875 -6.453125 L 42.546875 -4.984375 L 42.25 0 L 14.96875 0 L 14.671875 -4.984375 L 21.515625 -6.453125 C 21.578125 -6.648438 21.640625 -7.140625 21.703125 -7.921875 C 21.773438 -8.703125 21.84375 -9.628906 21.90625 -10.703125 C 21.96875 -11.785156 22 -12.960938 22 -14.234375 C 22 -15.503906 22 -16.722656 22 -17.890625 L 22 -27.671875 L 25.234375 -17.890625 L 5.671875 -50.953125 L 0.6875 -52.515625 L 0.984375 -57.40625 L 26.796875 -57.40625 L 27.09375 -52.515625 L 20.921875 -50.953125 L 33.34375 -29.53125 L 31 -29.53125 L 43.421875 -50.953125 L 36.578125 -52.515625 L 36.875 -57.40625 L 56.328125 -57.40625 L 56.625 -52.515625 Z M 51.640625 -50.953125 "/></g></g></g><g fill="#bc9946" fill-opacity="1"><g transform="translate(42.978559, 210.516252)"><g><path d="M 3.078125 -32.21875 L 12.5625 -32.21875 L 24.09375 -5.921875 L 23.109375 -5.921875 L 34.40625 -32.21875 L 43.3125 -32.21875 L 43.46875 -30.125 L 40.0625 -29.421875 C 40.03125 -28.910156 40.019531 -27.945312 40.03125 -26.53125 C 40.050781 -25.125 40.082031 -23.617188 40.125 -22.015625 L 40.34375 -11.96875 C 40.375 -10.132812 40.40625 -8.601562 40.4375 -7.375 C 40.476562 -6.15625 40.515625 -5.1875 40.546875 -4.46875 C 40.585938 -3.757812 40.628906 -3.203125 40.671875 -2.796875 L 44.015625 -2.078125 L 43.90625 0 L 32.265625 0 L 32.109375 -2.078125 L 35.453125 -2.796875 C 35.492188 -3.234375 35.515625 -3.742188 35.515625 -4.328125 C 35.515625 -4.921875 35.515625 -5.742188 35.515625 -6.796875 C 35.515625 -7.859375 35.492188 -9.304688 35.453125 -11.140625 L 35.34375 -30.625 L 36.78125 -30.625 L 23.484375 0.171875 L 21.5625 0.171875 L 7.953125 -30.6875 L 9.390625 -30.6875 L 9.4375 -12.015625 C 9.4375 -8.984375 9.445312 -6.78125 9.46875 -5.40625 C 9.488281 -4.03125 9.515625 -3.179688 9.546875 -2.859375 L 13.28125 -2.078125 L 13.125 0 L 2.359375 0 L 2.203125 -2.078125 L 5.921875 -2.859375 C 5.960938 -3.109375 5.988281 -3.582031 6 -4.28125 C 6.019531 -4.976562 6.046875 -5.898438 6.078125 -7.046875 C 6.117188 -8.203125 6.140625 -9.566406 6.140625 -11.140625 L 6.3125 -22.015625 C 6.34375 -23.617188 6.347656 -25.085938 6.328125 -26.421875 C 6.316406 -27.765625 6.3125 -28.742188 6.3125 -29.359375 L 2.96875 -30.125 Z M 3.078125 -32.21875 "/></g></g></g><g fill="#bc9946" fill-opacity="1"><g transform="translate(112.959289, 210.516252)"><g><path d="M 0.171875 0 L 0.0625 -2.078125 L 2.75 -2.859375 L 14.046875 -31.28125 L 17.234375 -33.203125 L 29.203125 -2.859375 L 31.9375 -2.078125 L 31.78125 0 L 20.6875 0 L 20.578125 -2.078125 L 23.9375 -2.859375 L 20.6875 -10.984375 L 20.09375 -12.671875 L 14.109375 -27.609375 L 15.375 -28.328125 L 9.65625 -12.671875 L 9.0625 -11.03125 L 6.140625 -2.859375 L 9.5 -2.078125 L 9.390625 0 Z M 7.84375 -10.15625 L 7.84375 -13.0625 C 8.539062 -13.03125 9.492188 -12.992188 10.703125 -12.953125 C 11.910156 -12.910156 13.394531 -12.890625 15.15625 -12.890625 C 16.875 -12.890625 18.34375 -12.910156 19.5625 -12.953125 C 20.789062 -12.992188 21.734375 -13.03125 22.390625 -13.0625 L 22.390625 -10.15625 C 21.148438 -10.1875 19.914062 -10.210938 18.6875 -10.234375 C 17.457031 -10.253906 16.28125 -10.265625 15.15625 -10.265625 C 14.050781 -10.265625 12.90625 -10.253906 11.71875 -10.234375 C 10.53125 -10.210938 9.238281 -10.1875 7.84375 -10.15625 Z M 7.84375 -10.15625 "/></g></g></g><g fill="#bc9946" fill-opacity="1"><g transform="translate(168.230609, 210.516252)"><g><path d="M 19.921875 0 L 19.8125 -2.078125 L 23.109375 -2.640625 C 22.847656 -3.035156 22.546875 -3.453125 22.203125 -3.890625 C 21.859375 -4.335938 21.445312 -4.832031 20.96875 -5.375 L 12.5625 -14.921875 L 10.265625 -14.921875 L 10.265625 -16.953125 L 13.171875 -17.734375 L 24.484375 -29.421875 L 21.125 -30.125 L 21.234375 -32.21875 L 31.828125 -32.21875 L 31.9375 -30.015625 L 28.765625 -29.46875 L 15.53125 -16.953125 L 15.703125 -18.609375 L 26.1875 -6.921875 C 26.800781 -6.253906 27.335938 -5.65625 27.796875 -5.125 C 28.253906 -4.601562 28.664062 -4.148438 29.03125 -3.765625 C 29.394531 -3.378906 29.707031 -3.054688 29.96875 -2.796875 L 32.71875 -2.140625 L 32.71875 0 Z M 2.796875 0 L 2.640625 -2.078125 L 5.984375 -2.859375 C 6.054688 -3.109375 6.109375 -3.910156 6.140625 -5.265625 C 6.179688 -6.617188 6.203125 -8.503906 6.203125 -10.921875 L 6.203125 -21.234375 C 6.203125 -22.878906 6.191406 -24.28125 6.171875 -25.4375 C 6.148438 -26.59375 6.128906 -27.5 6.109375 -28.15625 C 6.097656 -28.8125 6.054688 -29.210938 5.984375 -29.359375 L 2.578125 -30.125 L 2.75 -32.21875 L 14.4375 -32.21875 L 14.546875 -30.125 L 11.203125 -29.359375 C 11.128906 -29.253906 11.0625 -28.890625 11 -28.265625 C 10.945312 -27.640625 10.910156 -26.75 10.890625 -25.59375 C 10.878906 -24.445312 10.875 -22.992188 10.875 -21.234375 L 10.875 -10.921875 C 10.875 -8.503906 10.898438 -6.617188 10.953125 -5.265625 C 11.003906 -3.910156 11.050781 -3.109375 11.09375 -2.859375 L 14.4375 -2.078125 L 14.265625 0 Z M 2.796875 0 "/></g></g></g><g fill="#bc9946" fill-opacity="1"><g transform="translate(223.831244, 210.516252)"><g><path d="M 26.671875 0.28125 C 25.609375 0.164062 24.664062 0.0859375 23.84375 0.046875 C 23.019531 0.015625 22.242188 0 21.515625 0 L 2.6875 0 L 2.53125 -2.078125 L 5.921875 -2.859375 C 5.960938 -3.035156 6 -3.453125 6.03125 -4.109375 C 6.070312 -4.773438 6.097656 -5.671875 6.109375 -6.796875 C 6.128906 -7.929688 6.140625 -9.304688 6.140625 -10.921875 L 6.140625 -21.234375 C 6.140625 -22.878906 6.128906 -24.28125 6.109375 -25.4375 C 6.097656 -26.59375 6.070312 -27.5 6.03125 -28.15625 C 6 -28.8125 5.960938 -29.210938 5.921875 -29.359375 L 2.53125 -30.125 L 2.6875 -32.21875 L 20.3125 -32.21875 C 20.820312 -32.21875 21.367188 -32.21875 21.953125 -32.21875 C 22.535156 -32.21875 23.144531 -32.242188 23.78125 -32.296875 C 24.425781 -32.347656 25.097656 -32.394531 25.796875 -32.4375 L 26.890625 -25.1875 L 24.421875 -24.8125 L 22.609375 -29.421875 C 22.316406 -29.492188 21.988281 -29.535156 21.625 -29.546875 C 21.257812 -29.566406 20.875 -29.578125 20.46875 -29.578125 L 14.265625 -29.578125 C 13.578125 -29.578125 12.96875 -29.566406 12.4375 -29.546875 C 11.90625 -29.535156 11.382812 -29.492188 10.875 -29.421875 C 10.875 -29.273438 10.863281 -28.863281 10.84375 -28.1875 C 10.820312 -27.507812 10.800781 -26.726562 10.78125 -25.84375 C 10.757812 -24.96875 10.75 -24.09375 10.75 -23.21875 L 10.75 -8.390625 C 10.75 -7.660156 10.757812 -6.921875 10.78125 -6.171875 C 10.800781 -5.421875 10.820312 -4.757812 10.84375 -4.1875 C 10.863281 -3.625 10.875 -3.21875 10.875 -2.96875 C 11.414062 -2.925781 11.960938 -2.882812 12.515625 -2.84375 C 13.066406 -2.8125 13.6875 -2.796875 14.375 -2.796875 L 19.703125 -2.796875 C 20.503906 -2.796875 21.160156 -2.804688 21.671875 -2.828125 C 22.191406 -2.847656 22.597656 -2.875 22.890625 -2.90625 C 23.179688 -2.945312 23.414062 -2.984375 23.59375 -3.015625 L 26.453125 -8.234375 L 28.921875 -7.734375 Z M 20.578125 -11.25 L 19.921875 -14.984375 C 19.742188 -15.054688 19.429688 -15.109375 18.984375 -15.140625 C 18.546875 -15.179688 18.019531 -15.203125 17.40625 -15.203125 L 13.234375 -15.203125 C 12.753906 -15.203125 12.226562 -15.179688 11.65625 -15.140625 C 11.09375 -15.109375 10.519531 -15.070312 9.9375 -15.03125 L 9.9375 -18.0625 C 10.519531 -18.019531 11.09375 -17.988281 11.65625 -17.96875 C 12.226562 -17.957031 12.753906 -17.953125 13.234375 -17.953125 L 17.40625 -17.953125 C 18.019531 -17.953125 18.546875 -17.957031 18.984375 -17.96875 C 19.429688 -17.988281 19.742188 -18.035156 19.921875 -18.109375 L 20.578125 -21.90625 L 22.9375 -21.90625 L 22.9375 -11.25 Z M 20.578125 -11.25 "/></g></g></g><g fill="#bc9946" fill-opacity="1"><g transform="translate(277.675531, 210.516252)"><g><path d="M 2.53125 -32.21875 L 14.15625 -32.21875 L 14.328125 -30.125 L 10.921875 -29.3125 C 10.921875 -29.164062 10.898438 -28.832031 10.859375 -28.3125 C 10.828125 -27.800781 10.800781 -27 10.78125 -25.90625 C 10.757812 -24.8125 10.75 -23.253906 10.75 -21.234375 L 10.75 -12.78125 C 10.789062 -10.476562 11.164062 -8.625 11.875 -7.21875 C 12.59375 -5.8125 13.59375 -4.773438 14.875 -4.109375 C 16.15625 -3.453125 17.617188 -3.125 19.265625 -3.125 C 20.878906 -3.125 22.28125 -3.453125 23.46875 -4.109375 C 24.65625 -4.773438 25.578125 -5.847656 26.234375 -7.328125 C 26.890625 -8.804688 27.21875 -10.753906 27.21875 -13.171875 L 27.21875 -20.25 C 27.21875 -21.894531 27.195312 -23.347656 27.15625 -24.609375 C 27.125 -25.878906 27.085938 -26.925781 27.046875 -27.75 C 27.015625 -28.570312 26.960938 -29.09375 26.890625 -29.3125 L 23.046875 -30.125 L 23.21875 -32.21875 L 33.859375 -32.21875 L 34.03125 -30.125 L 30.6875 -29.3125 C 30.6875 -29.195312 30.664062 -28.851562 30.625 -28.28125 C 30.59375 -27.71875 30.566406 -26.796875 30.546875 -25.515625 C 30.523438 -24.234375 30.515625 -22.476562 30.515625 -20.25 L 30.515625 -12.890625 C 30.515625 -9.816406 30 -7.289062 28.96875 -5.3125 C 27.945312 -3.34375 26.539062 -1.878906 24.75 -0.921875 C 22.957031 0.0234375 20.945312 0.5 18.71875 0.5 C 14.726562 0.5 11.609375 -0.597656 9.359375 -2.796875 C 7.109375 -4.992188 5.984375 -8.101562 5.984375 -12.125 L 5.984375 -21.234375 C 5.984375 -23.253906 5.960938 -24.820312 5.921875 -25.9375 C 5.890625 -27.050781 5.863281 -27.863281 5.84375 -28.375 C 5.820312 -28.882812 5.796875 -29.195312 5.765625 -29.3125 L 2.421875 -30.125 Z M 2.53125 -32.21875 "/></g></g></g><g fill="#bc9946" fill-opacity="1"><g transform="translate(337.447491, 210.516252)"><g><path d="M 2.90625 0 L 2.75 -2.078125 L 5.921875 -2.859375 C 5.992188 -3.003906 6.039062 -3.320312 6.0625 -3.8125 C 6.082031 -4.3125 6.097656 -5.109375 6.109375 -6.203125 C 6.128906 -7.296875 6.140625 -8.773438 6.140625 -10.640625 L 6.203125 -21.796875 C 6.203125 -23.585938 6.179688 -25.007812 6.140625 -26.0625 C 6.109375 -27.125 6.082031 -27.910156 6.0625 -28.421875 C 6.039062 -28.941406 6.015625 -29.238281 5.984375 -29.3125 L 2.578125 -30.125 L 2.75 -32.21875 L 14.4375 -32.21875 C 18.0625 -32.21875 20.878906 -31.421875 22.890625 -29.828125 C 24.898438 -28.234375 25.90625 -25.9375 25.90625 -22.9375 C 25.90625 -20.894531 25.382812 -19.125 24.34375 -17.625 C 23.300781 -16.125 21.898438 -14.957031 20.140625 -14.125 C 18.390625 -13.300781 16.429688 -12.890625 14.265625 -12.890625 C 13.429688 -12.890625 12.664062 -12.9375 11.96875 -13.03125 C 11.269531 -13.125 10.609375 -13.226562 9.984375 -13.34375 L 9.984375 -16.296875 C 10.796875 -16.046875 11.519531 -15.863281 12.15625 -15.75 C 12.800781 -15.644531 13.453125 -15.59375 14.109375 -15.59375 C 16.265625 -15.59375 17.945312 -16.128906 19.15625 -17.203125 C 20.363281 -18.285156 20.96875 -19.960938 20.96875 -22.234375 C 20.96875 -24.828125 20.289062 -26.734375 18.9375 -27.953125 C 17.582031 -29.179688 15.878906 -29.796875 13.828125 -29.796875 L 10.921875 -29.796875 C 10.921875 -29.578125 10.910156 -29.070312 10.890625 -28.28125 C 10.878906 -27.5 10.863281 -26.539062 10.84375 -25.40625 C 10.820312 -24.269531 10.8125 -23.066406 10.8125 -21.796875 L 10.875 -10.640625 C 10.875 -8.773438 10.878906 -7.300781 10.890625 -6.21875 C 10.910156 -5.144531 10.945312 -4.367188 11 -3.890625 C 11.0625 -3.421875 11.09375 -3.09375 11.09375 -2.90625 L 15.640625 -2.203125 L 15.484375 0 Z M 2.90625 0 "/></g></g></g><g fill="#bc9946" fill-opacity="1"><g transform="translate(388.986573, 210.516252)"><g/></g></g><g fill="#bc9946" fill-opacity="1"><g transform="translate(422.852407, 210.516252)"><g><path d="M 0.171875 0 L 0.0625 -2.078125 L 2.75 -2.859375 L 14.046875 -31.28125 L 17.234375 -33.203125 L 29.203125 -2.859375 L 31.9375 -2.078125 L 31.78125 0 L 20.6875 0 L 20.578125 -2.078125 L 23.9375 -2.859375 L 20.6875 -10.984375 L 20.09375 -12.671875 L 14.109375 -27.609375 L 15.375 -28.328125 L 9.65625 -12.671875 L 9.0625 -11.03125 L 6.140625 -2.859375 L 9.5 -2.078125 L 9.390625 0 Z M 7.84375 -10.15625 L 7.84375 -13.0625 C 8.539062 -13.03125 9.492188 -12.992188 10.703125 -12.953125 C 11.910156 -12.910156 13.394531 -12.890625 15.15625 -12.890625 C 16.875 -12.890625 18.34375 -12.910156 19.5625 -12.953125 C 20.789062 -12.992188 21.734375 -13.03125 22.390625 -13.0625 L 22.390625 -10.15625 C 21.148438 -10.1875 19.914062 -10.210938 18.6875 -10.234375 C 17.457031 -10.253906 16.28125 -10.265625 15.15625 -10.265625 C 14.050781 -10.265625 12.90625 -10.253906 11.71875 -10.234375 C 10.53125 -10.210938 9.238281 -10.1875 7.84375 -10.15625 Z M 7.84375 -10.15625 "/></g></g></g><g fill="#bc9946" fill-opacity="1"><g transform="translate(478.123726, 210.516252)"><g><path d="M 2.859375 0 L 2.75 -2.078125 L 6.09375 -2.90625 C 6.09375 -3.164062 6.097656 -3.5625 6.109375 -4.09375 C 6.128906 -4.625 6.140625 -5.253906 6.140625 -5.984375 C 6.140625 -6.710938 6.148438 -7.503906 6.171875 -8.359375 C 6.191406 -9.222656 6.203125 -10.078125 6.203125 -10.921875 L 6.203125 -21.234375 C 6.203125 -22.921875 6.191406 -24.335938 6.171875 -25.484375 C 6.148438 -26.640625 6.117188 -27.535156 6.078125 -28.171875 C 6.046875 -28.816406 6.015625 -29.210938 5.984375 -29.359375 L 2.578125 -30.125 L 2.75 -32.21875 L 14.765625 -32.21875 C 18.203125 -32.21875 20.828125 -31.550781 22.640625 -30.21875 C 24.453125 -28.882812 25.359375 -26.914062 25.359375 -24.3125 C 25.359375 -22.519531 24.863281 -20.921875 23.875 -19.515625 C 22.882812 -18.109375 21.5 -17 19.71875 -16.1875 C 17.945312 -15.382812 15.929688 -14.984375 13.671875 -14.984375 L 10.15625 -14.984375 L 10.15625 -17.453125 L 13.28125 -17.453125 C 15.550781 -17.453125 17.316406 -18.019531 18.578125 -19.15625 C 19.835938 -20.289062 20.46875 -21.863281 20.46875 -23.875 C 20.46875 -25.8125 19.914062 -27.28125 18.8125 -28.28125 C 17.71875 -29.289062 16.148438 -29.796875 14.109375 -29.796875 L 10.921875 -29.796875 C 10.890625 -29.722656 10.863281 -29.578125 10.84375 -29.359375 C 10.820312 -29.140625 10.8125 -28.773438 10.8125 -28.265625 C 10.8125 -27.753906 10.8125 -27.003906 10.8125 -26.015625 C 10.8125 -25.023438 10.8125 -23.707031 10.8125 -22.0625 L 10.8125 -10.921875 C 10.8125 -9.347656 10.820312 -8.03125 10.84375 -6.96875 C 10.863281 -5.90625 10.898438 -5.050781 10.953125 -4.40625 C 11.003906 -3.769531 11.050781 -3.269531 11.09375 -2.90625 L 14.328125 -2.078125 L 14.15625 0 Z M 28.875 0.546875 C 27.257812 0.546875 25.828125 0.242188 24.578125 -0.359375 C 23.335938 -0.960938 22.140625 -1.976562 20.984375 -3.40625 C 19.835938 -4.832031 18.566406 -6.734375 17.171875 -9.109375 L 13.453125 -15.921875 L 17.5625 -16.84375 L 23.484375 -8.125 C 24.515625 -6.625 25.441406 -5.425781 26.265625 -4.53125 C 27.085938 -3.632812 27.898438 -2.960938 28.703125 -2.515625 C 29.503906 -2.078125 30.382812 -1.769531 31.34375 -1.59375 L 31.28125 0.328125 C 30.914062 0.398438 30.519531 0.453125 30.09375 0.484375 C 29.675781 0.523438 29.269531 0.546875 28.875 0.546875 Z M 28.875 0.546875 "/></g></g></g><g fill="#bc9946" fill-opacity="1"><g transform="translate(532.571781, 210.516252)"><g><path d="M 28.4375 -32.4375 L 29.640625 -23.546875 L 27.21875 -23.265625 L 24.921875 -29.46875 C 24.628906 -29.539062 24.289062 -29.585938 23.90625 -29.609375 C 23.519531 -29.628906 23.179688 -29.640625 22.890625 -29.640625 L 20.90625 -29.640625 C 20.539062 -29.640625 20.046875 -29.640625 19.421875 -29.640625 C 18.804688 -29.640625 18.242188 -29.617188 17.734375 -29.578125 C 17.734375 -29.285156 17.722656 -28.597656 17.703125 -27.515625 C 17.679688 -26.441406 17.671875 -25.191406 17.671875 -23.765625 C 17.671875 -22.335938 17.671875 -20.96875 17.671875 -19.65625 L 17.671875 -12.234375 C 17.671875 -9.929688 17.6875 -7.925781 17.71875 -6.21875 C 17.757812 -4.519531 17.78125 -3.398438 17.78125 -2.859375 L 22.453125 -2.203125 L 22.28125 0 L 8.28125 0 L 8.171875 -2.203125 L 12.78125 -2.859375 C 12.78125 -3.398438 12.796875 -4.519531 12.828125 -6.21875 C 12.867188 -7.925781 12.890625 -9.929688 12.890625 -12.234375 L 12.890625 -19.65625 C 12.890625 -20.96875 12.890625 -22.335938 12.890625 -23.765625 C 12.890625 -25.191406 12.890625 -26.441406 12.890625 -27.515625 C 12.890625 -28.597656 12.875 -29.285156 12.84375 -29.578125 C 12.363281 -29.617188 11.8125 -29.640625 11.1875 -29.640625 C 10.570312 -29.640625 10.082031 -29.640625 9.71875 -29.640625 L 7.578125 -29.640625 C 7.285156 -29.640625 6.960938 -29.628906 6.609375 -29.609375 C 6.265625 -29.585938 5.925781 -29.539062 5.59375 -29.46875 L 3.34375 -23.21875 L 0.875 -23.546875 L 2.078125 -32.4375 C 2.484375 -32.394531 2.914062 -32.363281 3.375 -32.34375 C 3.832031 -32.332031 4.289062 -32.304688 4.75 -32.265625 C 5.207031 -32.234375 5.65625 -32.21875 6.09375 -32.21875 C 6.53125 -32.21875 6.96875 -32.21875 7.40625 -32.21875 L 23.109375 -32.21875 C 23.503906 -32.21875 23.929688 -32.21875 24.390625 -32.21875 C 24.847656 -32.21875 25.296875 -32.234375 25.734375 -32.265625 C 26.179688 -32.304688 26.628906 -32.332031 27.078125 -32.34375 C 27.535156 -32.363281 27.988281 -32.394531 28.4375 -32.4375 Z M 28.4375 -32.4375 "/></g></g></g><g fill="#bc9946" fill-opacity="1"><g transform="translate(586.470977, 210.516252)"><g><path d="M 2.6875 0 L 2.578125 -2.078125 L 5.921875 -2.859375 C 5.992188 -3.035156 6.039062 -3.453125 6.0625 -4.109375 C 6.082031 -4.773438 6.097656 -5.671875 6.109375 -6.796875 C 6.128906 -7.929688 6.140625 -9.304688 6.140625 -10.921875 L 6.140625 -21.234375 C 6.140625 -22.878906 6.128906 -24.28125 6.109375 -25.4375 C 6.097656 -26.59375 6.082031 -27.507812 6.0625 -28.1875 C 6.039062 -28.863281 5.992188 -29.253906 5.921875 -29.359375 L 2.578125 -30.125 L 2.6875 -32.21875 L 14.375 -32.21875 L 14.484375 -30.125 L 11.140625 -29.359375 C 11.066406 -29.253906 11.003906 -28.898438 10.953125 -28.296875 C 10.898438 -27.691406 10.863281 -26.820312 10.84375 -25.6875 C 10.820312 -24.550781 10.8125 -23.066406 10.8125 -21.234375 L 10.8125 -10.921875 C 10.8125 -9.160156 10.820312 -7.710938 10.84375 -6.578125 C 10.863281 -5.453125 10.898438 -4.585938 10.953125 -3.984375 C 11.003906 -3.378906 11.066406 -3.003906 11.140625 -2.859375 L 14.484375 -2.078125 L 14.375 0 Z M 2.6875 0 "/></g></g></g><g fill="#bc9946" fill-opacity="1"><g transform="translate(626.81332, 210.516252)"><g><path d="M 12.34375 0.5 C 10.738281 0.5 9.09375 0.296875 7.40625 -0.109375 C 5.726562 -0.515625 4.335938 -1.023438 3.234375 -1.640625 L 2.96875 -8.734375 L 5.328125 -8.953125 L 6.859375 -4.0625 C 7.734375 -3.476562 8.710938 -3.03125 9.796875 -2.71875 C 10.878906 -2.40625 12.003906 -2.25 13.171875 -2.25 C 14.960938 -2.25 16.40625 -2.6875 17.5 -3.5625 C 18.601562 -4.445312 19.15625 -5.640625 19.15625 -7.140625 C 19.15625 -8.421875 18.769531 -9.488281 18 -10.34375 C 17.226562 -11.207031 16.226562 -11.957031 15 -12.59375 C 13.78125 -13.238281 12.484375 -13.863281 11.109375 -14.46875 C 9.742188 -15.070312 8.457031 -15.765625 7.25 -16.546875 C 6.039062 -17.335938 5.039062 -18.304688 4.25 -19.453125 C 3.46875 -20.609375 3.078125 -22.046875 3.078125 -23.765625 C 3.078125 -25.523438 3.578125 -27.085938 4.578125 -28.453125 C 5.585938 -29.828125 6.96875 -30.890625 8.71875 -31.640625 C 10.476562 -32.390625 12.492188 -32.765625 14.765625 -32.765625 C 15.710938 -32.765625 16.632812 -32.71875 17.53125 -32.625 C 18.425781 -32.539062 19.257812 -32.394531 20.03125 -32.1875 C 20.800781 -31.988281 21.5 -31.757812 22.125 -31.5 L 22.5625 -24.640625 L 20.203125 -24.421875 L 18.65625 -29.03125 C 17.488281 -29.757812 15.988281 -30.125 14.15625 -30.125 C 12.289062 -30.125 10.800781 -29.664062 9.6875 -28.75 C 8.570312 -27.84375 8.015625 -26.65625 8.015625 -25.1875 C 8.015625 -23.875 8.40625 -22.769531 9.1875 -21.875 C 9.976562 -20.976562 10.984375 -20.195312 12.203125 -19.53125 C 13.429688 -18.875 14.734375 -18.242188 16.109375 -17.640625 C 17.484375 -17.035156 18.78125 -16.347656 20 -15.578125 C 21.226562 -14.816406 22.234375 -13.878906 23.015625 -12.765625 C 23.804688 -11.648438 24.203125 -10.265625 24.203125 -8.609375 C 24.203125 -6.859375 23.6875 -5.296875 22.65625 -3.921875 C 21.632812 -2.546875 20.238281 -1.460938 18.46875 -0.671875 C 16.695312 0.109375 14.65625 0.5 12.34375 0.5 Z M 12.34375 0.5 "/></g></g></g><g fill="#bc9946" fill-opacity="1"><g transform="translate(676.43142, 210.516252)"><g><path d="M 28.4375 -32.4375 L 29.640625 -23.546875 L 27.21875 -23.265625 L 24.921875 -29.46875 C 24.628906 -29.539062 24.289062 -29.585938 23.90625 -29.609375 C 23.519531 -29.628906 23.179688 -29.640625 22.890625 -29.640625 L 20.90625 -29.640625 C 20.539062 -29.640625 20.046875 -29.640625 19.421875 -29.640625 C 18.804688 -29.640625 18.242188 -29.617188 17.734375 -29.578125 C 17.734375 -29.285156 17.722656 -28.597656 17.703125 -27.515625 C 17.679688 -26.441406 17.671875 -25.191406 17.671875 -23.765625 C 17.671875 -22.335938 17.671875 -20.96875 17.671875 -19.65625 L 17.671875 -12.234375 C 17.671875 -9.929688 17.6875 -7.925781 17.71875 -6.21875 C 17.757812 -4.519531 17.78125 -3.398438 17.78125 -2.859375 L 22.453125 -2.203125 L 22.28125 0 L 8.28125 0 L 8.171875 -2.203125 L 12.78125 -2.859375 C 12.78125 -3.398438 12.796875 -4.519531 12.828125 -6.21875 C 12.867188 -7.925781 12.890625 -9.929688 12.890625 -12.234375 L 12.890625 -19.65625 C 12.890625 -20.96875 12.890625 -22.335938 12.890625 -23.765625 C 12.890625 -25.191406 12.890625 -26.441406 12.890625 -27.515625 C 12.890625 -28.597656 12.875 -29.285156 12.84375 -29.578125 C 12.363281 -29.617188 11.8125 -29.640625 11.1875 -29.640625 C 10.570312 -29.640625 10.082031 -29.640625 9.71875 -29.640625 L 7.578125 -29.640625 C 7.285156 -29.640625 6.960938 -29.628906 6.609375 -29.609375 C 6.265625 -29.585938 5.925781 -29.539062 5.59375 -29.46875 L 3.34375 -23.21875 L 0.875 -23.546875 L 2.078125 -32.4375 C 2.484375 -32.394531 2.914062 -32.363281 3.375 -32.34375 C 3.832031 -32.332031 4.289062 -32.304688 4.75 -32.265625 C 5.207031 -32.234375 5.65625 -32.21875 6.09375 -32.21875 C 6.53125 -32.21875 6.96875 -32.21875 7.40625 -32.21875 L 23.109375 -32.21875 C 23.503906 -32.21875 23.929688 -32.21875 24.390625 -32.21875 C 24.847656 -32.21875 25.296875 -32.234375 25.734375 -32.265625 C 26.179688 -32.304688 26.628906 -32.332031 27.078125 -32.34375 C 27.535156 -32.363281 27.988281 -32.394531 28.4375 -32.4375 Z M 28.4375 -32.4375 "/></g></g></g></svg>